<mxfile host="Electron" modified="2024-01-01T10:20:11.462Z" agent="Mozilla/5.0 (Macintosh; Intel Mac OS X 10_15_7) AppleWebKit/537.36 (KHTML, like Gecko) draw.io/22.1.16 Chrome/120.0.6099.109 Electron/28.1.0 Safari/537.36" etag="znCx-WjXOtEsBfixSwPI" version="22.1.16" type="device">
  <diagram name="Page-1" id="VCU2_7XY7YOSpMuFFgP9">
    <mxGraphModel dx="3004" dy="2104" grid="1" gridSize="10" guides="1" tooltips="1" connect="1" arrows="1" fold="1" page="0" pageScale="1" pageWidth="1169" pageHeight="827" math="0" shadow="0">
      <root>
        <mxCell id="0" />
        <mxCell id="1" parent="0" />
        <mxCell id="p8tfiG4p6Vh0YpFKXhgD-1" value="" style="rounded=1;whiteSpace=wrap;html=1;fontSize=16;fillColor=none;dashed=1;dashPattern=12 12;" parent="1" vertex="1">
          <mxGeometry x="-1361" y="-740" width="880" height="130" as="geometry" />
        </mxCell>
        <UserObject label="&lt;i&gt;&lt;font color=&quot;#000000&quot;&gt;Presentation ABC&lt;/font&gt;&lt;/i&gt;" id="80YUNRsU_wij_iDbftCs-68">
          <mxCell style="ellipse;whiteSpace=wrap;html=1;fontSize=16;fillColor=none;strokeWidth=2;strokeColor=#336600;" parent="1" vertex="1">
            <mxGeometry x="-979" y="-684.61" width="147" height="39.22" as="geometry" />
          </mxCell>
        </UserObject>
        <UserObject label="&lt;i&gt;&lt;font color=&quot;#000000&quot;&gt;VerifiablePresentation&lt;/font&gt;&lt;/i&gt;" id="80YUNRsU_wij_iDbftCs-69">
          <mxCell style="ellipse;whiteSpace=wrap;html=1;fontSize=16;fillColor=none;strokeWidth=2;strokeColor=#336600;" parent="1" vertex="1">
            <mxGeometry x="-1330" y="-690" width="180" height="50" as="geometry" />
          </mxCell>
        </UserObject>
        <UserObject label="&lt;i&gt;&lt;font color=&quot;#000000&quot;&gt;DoNotArchive&lt;/font&gt;&lt;/i&gt;" id="80YUNRsU_wij_iDbftCs-70">
          <mxCell style="ellipse;whiteSpace=wrap;html=1;fontSize=16;fillColor=none;strokeWidth=2;strokeColor=#336600;" parent="1" vertex="1">
            <mxGeometry x="-659" y="-684.61" width="147" height="39.22" as="geometry" />
          </mxCell>
        </UserObject>
        <mxCell id="80YUNRsU_wij_iDbftCs-71" style="edgeStyle=none;curved=1;rounded=0;orthogonalLoop=1;jettySize=auto;html=1;exitX=1;exitY=0.5;exitDx=0;exitDy=0;entryX=0;entryY=0.5;entryDx=0;entryDy=0;fontSize=12;startSize=8;endSize=8;strokeWidth=2;" parent="1" source="80YUNRsU_wij_iDbftCs-68" target="80YUNRsU_wij_iDbftCs-70" edge="1">
          <mxGeometry relative="1" as="geometry" />
        </mxCell>
        <mxCell id="80YUNRsU_wij_iDbftCs-73" value="&amp;nbsp;termsOfUse&amp;nbsp;" style="edgeLabel;html=1;align=center;verticalAlign=middle;resizable=0;points=[];fontSize=16;" parent="80YUNRsU_wij_iDbftCs-71" vertex="1" connectable="0">
          <mxGeometry x="-0.0295" relative="1" as="geometry">
            <mxPoint as="offset" />
          </mxGeometry>
        </mxCell>
        <mxCell id="80YUNRsU_wij_iDbftCs-72" style="edgeStyle=none;curved=1;rounded=0;orthogonalLoop=1;jettySize=auto;html=1;exitX=0;exitY=0.5;exitDx=0;exitDy=0;entryX=1;entryY=0.5;entryDx=0;entryDy=0;fontSize=12;startSize=8;endSize=8;strokeWidth=2;" parent="1" source="80YUNRsU_wij_iDbftCs-68" target="80YUNRsU_wij_iDbftCs-69" edge="1">
          <mxGeometry relative="1" as="geometry">
            <mxPoint x="-1064" y="-574.61" as="sourcePoint" />
            <mxPoint x="-759" y="-574.61" as="targetPoint" />
          </mxGeometry>
        </mxCell>
        <mxCell id="80YUNRsU_wij_iDbftCs-74" value="&amp;nbsp;type&amp;nbsp;" style="edgeLabel;html=1;align=center;verticalAlign=middle;resizable=0;points=[];fontSize=16;" parent="80YUNRsU_wij_iDbftCs-72" vertex="1" connectable="0">
          <mxGeometry x="-0.1806" y="-3" relative="1" as="geometry">
            <mxPoint as="offset" />
          </mxGeometry>
        </mxCell>
        <mxCell id="80YUNRsU_wij_iDbftCs-77" style="edgeStyle=none;curved=1;rounded=0;orthogonalLoop=1;jettySize=auto;html=1;fontSize=12;startSize=8;endSize=8;strokeWidth=2;exitX=0.5;exitY=1;exitDx=0;exitDy=0;entryX=0.526;entryY=0.003;entryDx=0;entryDy=0;entryPerimeter=0;" parent="1" source="80YUNRsU_wij_iDbftCs-68" target="68PoX1-DRDIrpmaT4c05-46" edge="1">
          <mxGeometry relative="1" as="geometry">
            <mxPoint x="-880" y="-630" as="sourcePoint" />
            <mxPoint x="-1170" y="-540" as="targetPoint" />
            <Array as="points">
              <mxPoint x="-1050" y="-590" />
            </Array>
          </mxGeometry>
        </mxCell>
        <mxCell id="80YUNRsU_wij_iDbftCs-78" value="verifiableCredential" style="edgeLabel;html=1;align=center;verticalAlign=middle;resizable=0;points=[];fontSize=16;" parent="80YUNRsU_wij_iDbftCs-77" vertex="1" connectable="0">
          <mxGeometry x="-0.0295" relative="1" as="geometry">
            <mxPoint as="offset" />
          </mxGeometry>
        </mxCell>
        <mxCell id="80YUNRsU_wij_iDbftCs-79" style="edgeStyle=none;curved=1;rounded=0;orthogonalLoop=1;jettySize=auto;html=1;exitX=1;exitY=1;exitDx=0;exitDy=0;entryX=1;entryY=0.5;entryDx=0;entryDy=0;fontSize=12;startSize=8;endSize=8;strokeWidth=2;" parent="1" source="80YUNRsU_wij_iDbftCs-68" target="80YUNRsU_wij_iDbftCs-49" edge="1">
          <mxGeometry relative="1" as="geometry">
            <mxPoint x="-62.73792094396697" y="-599.9964451771971" as="sourcePoint" />
            <mxPoint x="-130.0000000000001" y="341.3400000000002" as="targetPoint" />
            <Array as="points">
              <mxPoint x="-390" y="-610" />
              <mxPoint x="-380" y="-270" />
              <mxPoint x="-360" y="290" />
              <mxPoint x="-400" y="520" />
            </Array>
          </mxGeometry>
        </mxCell>
        <mxCell id="lX6lRBvpDmC6g2FffIeI-1" value="proof" style="edgeLabel;html=1;align=center;verticalAlign=middle;resizable=0;points=[];fontSize=16;" parent="80YUNRsU_wij_iDbftCs-79" vertex="1" connectable="0">
          <mxGeometry x="0.2604" relative="1" as="geometry">
            <mxPoint as="offset" />
          </mxGeometry>
        </mxCell>
        <mxCell id="p8tfiG4p6Vh0YpFKXhgD-2" value="&lt;i style=&quot;border-color: var(--border-color); color: rgb(0, 0, 0); font-family: Helvetica; font-size: 16px; font-variant-ligatures: normal; font-variant-caps: normal; font-weight: 400; letter-spacing: normal; orphans: 2; text-indent: 0px; text-transform: none; widows: 2; word-spacing: 0px; -webkit-text-stroke-width: 0px; background-color: rgb(251, 251, 251); text-decoration-thickness: initial; text-decoration-style: initial; text-decoration-color: initial;&quot;&gt;&lt;font style=&quot;border-color: var(--border-color); font-size: 13px;&quot;&gt;verifiable presentation graph&lt;br&gt;(the default graph)&lt;br&gt;&lt;/font&gt;&lt;/i&gt;" style="text;whiteSpace=wrap;html=1;fontSize=16;align=center;rotation=0;" parent="1" vertex="1">
          <mxGeometry x="-700" y="-745" width="215.5" height="30" as="geometry" />
        </mxCell>
        <mxCell id="68PoX1-DRDIrpmaT4c05-97" value="" style="group" parent="1" vertex="1" connectable="0">
          <mxGeometry x="-1370" y="540" width="880" height="328" as="geometry" />
        </mxCell>
        <mxCell id="80YUNRsU_wij_iDbftCs-49" value="" style="rounded=1;whiteSpace=wrap;html=1;fontSize=16;fillColor=none;dashed=1;dashPattern=12 12;" parent="68PoX1-DRDIrpmaT4c05-97" vertex="1">
          <mxGeometry width="880" height="328" as="geometry" />
        </mxCell>
        <UserObject label="&lt;i&gt;&lt;font color=&quot;#000000&quot;&gt;Signature 8920&lt;/font&gt;&lt;/i&gt;" id="80YUNRsU_wij_iDbftCs-50">
          <mxCell style="ellipse;whiteSpace=wrap;html=1;fontSize=16;fillColor=none;strokeWidth=2;strokeColor=#336600;" parent="68PoX1-DRDIrpmaT4c05-97" vertex="1">
            <mxGeometry x="377" y="99.88999999999999" width="147" height="39.22" as="geometry" />
          </mxCell>
        </UserObject>
        <mxCell id="80YUNRsU_wij_iDbftCs-57" value="" style="endArrow=classic;html=1;rounded=0;fontSize=12;startSize=8;endSize=8;curved=1;entryX=0.5;entryY=0;entryDx=0;entryDy=0;exitX=0.5;exitY=1;exitDx=0;exitDy=0;strokeWidth=2;fontStyle=2" parent="68PoX1-DRDIrpmaT4c05-97" source="80YUNRsU_wij_iDbftCs-50" target="80YUNRsU_wij_iDbftCs-52" edge="1">
          <mxGeometry width="50" height="50" relative="1" as="geometry">
            <mxPoint x="438" y="173.5" as="sourcePoint" />
            <mxPoint x="316" y="104.5" as="targetPoint" />
          </mxGeometry>
        </mxCell>
        <mxCell id="80YUNRsU_wij_iDbftCs-58" value="&amp;nbsp;type&amp;nbsp;" style="edgeLabel;html=1;align=center;verticalAlign=middle;resizable=0;points=[];fontSize=16;" parent="80YUNRsU_wij_iDbftCs-57" vertex="1" connectable="0">
          <mxGeometry x="0.1345" y="-2" relative="1" as="geometry">
            <mxPoint as="offset" />
          </mxGeometry>
        </mxCell>
        <mxCell id="80YUNRsU_wij_iDbftCs-59" value="verificationMethod" style="edgeLabel;html=1;align=center;verticalAlign=middle;resizable=0;points=[];fontSize=16;" parent="80YUNRsU_wij_iDbftCs-57" vertex="1" connectable="0">
          <mxGeometry x="0.1126" y="4" relative="1" as="geometry">
            <mxPoint as="offset" />
          </mxGeometry>
        </mxCell>
        <mxCell id="80YUNRsU_wij_iDbftCs-60" value="" style="endArrow=classic;html=1;rounded=0;fontSize=12;startSize=8;endSize=8;curved=1;exitX=0;exitY=1;exitDx=0;exitDy=0;entryX=1;entryY=0.5;entryDx=0;entryDy=0;strokeWidth=2;fontStyle=2" parent="68PoX1-DRDIrpmaT4c05-97" source="80YUNRsU_wij_iDbftCs-50" target="80YUNRsU_wij_iDbftCs-53" edge="1">
          <mxGeometry width="50" height="50" relative="1" as="geometry">
            <mxPoint x="416" y="112.5" as="sourcePoint" />
            <mxPoint x="286" y="74.5" as="targetPoint" />
            <Array as="points">
              <mxPoint x="348" y="173.5" />
            </Array>
          </mxGeometry>
        </mxCell>
        <mxCell id="80YUNRsU_wij_iDbftCs-61" value="&amp;nbsp;created" style="edgeLabel;html=1;align=center;verticalAlign=middle;resizable=0;points=[];fontSize=16;" parent="80YUNRsU_wij_iDbftCs-60" vertex="1" connectable="0">
          <mxGeometry x="0.1345" y="-2" relative="1" as="geometry">
            <mxPoint as="offset" />
          </mxGeometry>
        </mxCell>
        <mxCell id="80YUNRsU_wij_iDbftCs-62" value="" style="endArrow=classic;html=1;rounded=0;fontSize=12;startSize=8;endSize=8;curved=1;exitX=0;exitY=0;exitDx=0;exitDy=0;entryX=1;entryY=0.5;entryDx=0;entryDy=0;strokeWidth=2;fontStyle=2" parent="68PoX1-DRDIrpmaT4c05-97" source="80YUNRsU_wij_iDbftCs-50" target="80YUNRsU_wij_iDbftCs-54" edge="1">
          <mxGeometry width="50" height="50" relative="1" as="geometry">
            <mxPoint x="188" y="-116.5" as="sourcePoint" />
            <mxPoint x="238" y="-166.5" as="targetPoint" />
            <Array as="points">
              <mxPoint x="358" y="73.5" />
            </Array>
          </mxGeometry>
        </mxCell>
        <mxCell id="80YUNRsU_wij_iDbftCs-63" value="&amp;nbsp;type&amp;nbsp;" style="edgeLabel;html=1;align=center;verticalAlign=middle;resizable=0;points=[];fontSize=16;" parent="80YUNRsU_wij_iDbftCs-62" vertex="1" connectable="0">
          <mxGeometry x="0.1345" y="-2" relative="1" as="geometry">
            <mxPoint as="offset" />
          </mxGeometry>
        </mxCell>
        <mxCell id="80YUNRsU_wij_iDbftCs-64" value="" style="endArrow=classic;html=1;rounded=0;fontSize=12;startSize=8;endSize=8;curved=1;exitX=1;exitY=0;exitDx=0;exitDy=0;entryX=0;entryY=0.5;entryDx=0;entryDy=0;strokeWidth=2;fontStyle=2" parent="68PoX1-DRDIrpmaT4c05-97" source="80YUNRsU_wij_iDbftCs-50" target="80YUNRsU_wij_iDbftCs-55" edge="1">
          <mxGeometry width="50" height="50" relative="1" as="geometry">
            <mxPoint x="426" y="122.5" as="sourcePoint" />
            <mxPoint x="638" y="63.5" as="targetPoint" />
            <Array as="points">
              <mxPoint x="558" y="73.5" />
            </Array>
          </mxGeometry>
        </mxCell>
        <mxCell id="80YUNRsU_wij_iDbftCs-65" value="nonce&amp;nbsp;" style="edgeLabel;html=1;align=center;verticalAlign=middle;resizable=0;points=[];fontSize=16;" parent="80YUNRsU_wij_iDbftCs-64" vertex="1" connectable="0">
          <mxGeometry x="0.1345" y="-2" relative="1" as="geometry">
            <mxPoint as="offset" />
          </mxGeometry>
        </mxCell>
        <mxCell id="80YUNRsU_wij_iDbftCs-66" value="" style="endArrow=classic;html=1;rounded=0;fontSize=12;startSize=8;endSize=8;curved=1;exitX=1;exitY=1;exitDx=0;exitDy=0;entryX=0;entryY=0.5;entryDx=0;entryDy=0;strokeWidth=2;fontStyle=2" parent="68PoX1-DRDIrpmaT4c05-97" source="80YUNRsU_wij_iDbftCs-50" target="80YUNRsU_wij_iDbftCs-56" edge="1">
          <mxGeometry width="50" height="50" relative="1" as="geometry">
            <mxPoint x="436" y="132.5" as="sourcePoint" />
            <mxPoint x="306" y="94.5" as="targetPoint" />
            <Array as="points">
              <mxPoint x="558" y="173.5" />
            </Array>
          </mxGeometry>
        </mxCell>
        <mxCell id="80YUNRsU_wij_iDbftCs-67" value="proofValue" style="edgeLabel;html=1;align=center;verticalAlign=middle;resizable=0;points=[];fontSize=16;" parent="80YUNRsU_wij_iDbftCs-66" vertex="1" connectable="0">
          <mxGeometry x="0.1345" y="-2" relative="1" as="geometry">
            <mxPoint as="offset" />
          </mxGeometry>
        </mxCell>
        <mxCell id="80YUNRsU_wij_iDbftCs-83" value="" style="group" parent="68PoX1-DRDIrpmaT4c05-97" vertex="1" connectable="0">
          <mxGeometry x="67" y="51.5" width="752" height="243" as="geometry" />
        </mxCell>
        <mxCell id="80YUNRsU_wij_iDbftCs-51" value="" style="group" parent="80YUNRsU_wij_iDbftCs-83" vertex="1" connectable="0">
          <mxGeometry width="752" height="243" as="geometry" />
        </mxCell>
        <UserObject label="&lt;i&gt;&lt;font color=&quot;#000000&quot;&gt;Example University Public Key 11&amp;nbsp;&lt;/font&gt;&lt;/i&gt;" id="80YUNRsU_wij_iDbftCs-52">
          <mxCell style="ellipse;whiteSpace=wrap;html=1;fontSize=16;fillColor=none;strokeWidth=2;strokeColor=#336600;" parent="80YUNRsU_wij_iDbftCs-51" vertex="1">
            <mxGeometry x="302.5" y="183" width="160" height="60" as="geometry" />
          </mxCell>
        </UserObject>
        <UserObject label="&lt;i&gt;&lt;font color=&quot;#000000&quot;&gt;2024-01-02T12:43.56Z&lt;/font&gt;&lt;/i&gt;" id="80YUNRsU_wij_iDbftCs-53">
          <mxCell style="rounded=0;whiteSpace=wrap;html=1;fontSize=16;fillColor=none;strokeWidth=2;" parent="80YUNRsU_wij_iDbftCs-51" vertex="1">
            <mxGeometry y="120" width="190" height="40" as="geometry" />
          </mxCell>
        </UserObject>
        <UserObject label="&lt;i&gt;&lt;font color=&quot;#000000&quot;&gt;Data Integrity Proof&lt;/font&gt;&lt;/i&gt;" id="80YUNRsU_wij_iDbftCs-54">
          <mxCell style="ellipse;whiteSpace=wrap;html=1;fontSize=16;fillColor=none;strokeWidth=2;strokeColor=#336600;shadow=0;perimeterSpacing=3;" parent="80YUNRsU_wij_iDbftCs-51" vertex="1">
            <mxGeometry x="5" width="180" height="50" as="geometry" />
          </mxCell>
        </UserObject>
        <UserObject label="&lt;i&gt;&lt;font color=&quot;#000000&quot;&gt;hasdkyruod87j&lt;/font&gt;&lt;/i&gt;" id="80YUNRsU_wij_iDbftCs-55">
          <mxCell style="rounded=0;whiteSpace=wrap;html=1;fontSize=16;fillColor=none;strokeWidth=2;" parent="80YUNRsU_wij_iDbftCs-51" vertex="1">
            <mxGeometry x="602" y="4" width="140" height="40" as="geometry" />
          </mxCell>
        </UserObject>
        <UserObject label="&lt;i&gt;&lt;font color=&quot;#000000&quot;&gt;zpweJHoan87&lt;/font&gt;&lt;/i&gt;" id="80YUNRsU_wij_iDbftCs-56">
          <mxCell style="rounded=0;whiteSpace=wrap;html=1;fontSize=16;fillColor=none;strokeWidth=2;" parent="80YUNRsU_wij_iDbftCs-51" vertex="1">
            <mxGeometry x="592" y="116" width="160" height="40" as="geometry" />
          </mxCell>
        </UserObject>
        <mxCell id="80YUNRsU_wij_iDbftCs-86" value="&lt;i&gt;&lt;font style=&quot;font-size: 13px;&quot;&gt;verifiable presentation proof graph&lt;br&gt;(a named graph)&lt;br&gt;&lt;/font&gt;&lt;/i&gt;" style="text;html=1;strokeColor=none;fillColor=none;align=center;verticalAlign=middle;whiteSpace=wrap;rounded=0;fontSize=16;" parent="68PoX1-DRDIrpmaT4c05-97" vertex="1">
          <mxGeometry x="585.5" y="2" width="280" height="30" as="geometry" />
        </mxCell>
        <mxCell id="68PoX1-DRDIrpmaT4c05-100" style="edgeStyle=none;curved=1;rounded=0;orthogonalLoop=1;jettySize=auto;html=1;fontSize=12;startSize=8;endSize=8;strokeWidth=2;exitX=0.5;exitY=1;exitDx=0;exitDy=0;entryX=0.514;entryY=-0.009;entryDx=0;entryDy=0;entryPerimeter=0;" parent="1" source="80YUNRsU_wij_iDbftCs-68" target="68PoX1-DRDIrpmaT4c05-89" edge="1">
          <mxGeometry relative="1" as="geometry">
            <mxPoint x="-553" y="-440" as="sourcePoint" />
            <mxPoint x="-690" y="-70" as="targetPoint" />
            <Array as="points">
              <mxPoint x="-720" y="-340" />
            </Array>
          </mxGeometry>
        </mxCell>
        <mxCell id="68PoX1-DRDIrpmaT4c05-101" value="verifiableCredential" style="edgeLabel;html=1;align=center;verticalAlign=middle;resizable=0;points=[];fontSize=16;" parent="68PoX1-DRDIrpmaT4c05-100" vertex="1" connectable="0">
          <mxGeometry x="-0.0295" relative="1" as="geometry">
            <mxPoint x="-40" as="offset" />
          </mxGeometry>
        </mxCell>
        <mxCell id="68PoX1-DRDIrpmaT4c05-90" value="" style="rounded=1;whiteSpace=wrap;html=1;fontSize=16;fillColor=none;dashed=1;dashPattern=12 12;" parent="1" vertex="1">
          <mxGeometry x="-1020" y="291.02446033810145" width="576.7415730337078" height="218.76553966189857" as="geometry" />
        </mxCell>
        <mxCell id="68PoX1-DRDIrpmaT4c05-89" value="" style="rounded=1;whiteSpace=wrap;html=1;fontSize=16;fillColor=none;dashed=1;dashPattern=12 12;" parent="1" vertex="1">
          <mxGeometry x="-1020" y="3.3146293888166483" width="583.3707865168539" height="256.5523146944083" as="geometry" />
        </mxCell>
        <UserObject label="&lt;i&gt;&lt;font style=&quot;font-size: 10px;&quot; color=&quot;#000000&quot;&gt;Signature 456&lt;/font&gt;&lt;/i&gt;" id="68PoX1-DRDIrpmaT4c05-51">
          <mxCell style="ellipse;whiteSpace=wrap;html=1;fontSize=16;fillColor=none;strokeWidth=2;strokeColor=#336600;" parent="1" vertex="1">
            <mxGeometry x="-770.7415730337079" y="366.8565514954486" width="97.44943820224718" height="25.999952925877764" as="geometry" />
          </mxCell>
        </UserObject>
        <mxCell id="68PoX1-DRDIrpmaT4c05-52" value="" style="group" parent="1" vertex="1" connectable="0">
          <mxGeometry x="-975.5842696629213" y="326.8224577373212" width="498.51685393258424" height="161.09098829648894" as="geometry" />
        </mxCell>
        <UserObject label="&lt;p style=&quot;line-height: 70%;&quot;&gt;&lt;i&gt;&lt;font style=&quot;font-size: 10px;&quot; color=&quot;#000000&quot;&gt;Example University Public Key 7&amp;nbsp;&lt;/font&gt;&lt;/i&gt;&lt;/p&gt;" id="68PoX1-DRDIrpmaT4c05-53">
          <mxCell style="ellipse;whiteSpace=wrap;html=1;fontSize=16;fillColor=none;strokeWidth=2;strokeColor=#336600;" parent="68PoX1-DRDIrpmaT4c05-52" vertex="1">
            <mxGeometry x="200.53370786516854" y="121.31543563068921" width="106.06741573033707" height="39.775552665799744" as="geometry" />
          </mxCell>
        </UserObject>
        <UserObject label="&lt;i&gt;&lt;font style=&quot;font-size: 10px;&quot; color=&quot;#000000&quot;&gt;2022-06-18T21:19.10Z&lt;/font&gt;&lt;/i&gt;" id="68PoX1-DRDIrpmaT4c05-54">
          <mxCell style="rounded=0;whiteSpace=wrap;html=1;fontSize=16;fillColor=none;strokeWidth=2;" parent="68PoX1-DRDIrpmaT4c05-52" vertex="1">
            <mxGeometry y="79.55110533159949" width="125.95505617977527" height="26.51703511053316" as="geometry" />
          </mxCell>
        </UserObject>
        <UserObject label="&lt;i&gt;&lt;font style=&quot;font-size: 10px;&quot; color=&quot;#000000&quot;&gt;Data Integrity Proof&lt;/font&gt;&lt;/i&gt;" id="68PoX1-DRDIrpmaT4c05-55">
          <mxCell style="ellipse;whiteSpace=wrap;html=1;fontSize=16;fillColor=none;strokeWidth=2;strokeColor=#336600;shadow=0;perimeterSpacing=3;" parent="68PoX1-DRDIrpmaT4c05-52" vertex="1">
            <mxGeometry x="3.3146067415730336" width="119.32584269662921" height="33.14629388816645" as="geometry" />
          </mxCell>
        </UserObject>
        <UserObject label="&lt;i&gt;&lt;font style=&quot;font-size: 10px;&quot; color=&quot;#000000&quot;&gt;34dj239dsj328&lt;/font&gt;&lt;/i&gt;" id="68PoX1-DRDIrpmaT4c05-56">
          <mxCell style="rounded=0;whiteSpace=wrap;html=1;fontSize=16;fillColor=none;strokeWidth=2;" parent="68PoX1-DRDIrpmaT4c05-52" vertex="1">
            <mxGeometry x="399.07865168539325" y="2.651703511053316" width="92.80898876404494" height="26.51703511053316" as="geometry" />
          </mxCell>
        </UserObject>
        <UserObject label="&lt;i&gt;&lt;font style=&quot;font-size: 10px;&quot; color=&quot;#000000&quot;&gt;zBavE110…3JT2pq&lt;/font&gt;&lt;/i&gt;" id="68PoX1-DRDIrpmaT4c05-57">
          <mxCell style="rounded=0;whiteSpace=wrap;html=1;fontSize=16;fillColor=none;strokeWidth=2;" parent="68PoX1-DRDIrpmaT4c05-52" vertex="1">
            <mxGeometry x="392.44943820224717" y="76.89940182054616" width="106.06741573033707" height="26.51703511053316" as="geometry" />
          </mxCell>
        </UserObject>
        <mxCell id="68PoX1-DRDIrpmaT4c05-58" value="" style="endArrow=classic;html=1;rounded=0;fontSize=12;startSize=8;endSize=8;curved=1;entryX=0.5;entryY=0;entryDx=0;entryDy=0;exitX=0.5;exitY=1;exitDx=0;exitDy=0;strokeWidth=2;fontStyle=2" parent="1" source="68PoX1-DRDIrpmaT4c05-51" target="68PoX1-DRDIrpmaT4c05-53" edge="1">
          <mxGeometry width="50" height="50" relative="1" as="geometry">
            <mxPoint x="-730.3033707865169" y="415.65452535760727" as="sourcePoint" />
            <mxPoint x="-811.1797752808989" y="369.9126397919376" as="targetPoint" />
          </mxGeometry>
        </mxCell>
        <mxCell id="68PoX1-DRDIrpmaT4c05-60" value="&lt;font style=&quot;font-size: 10px;&quot;&gt;verificationMethod&lt;/font&gt;" style="edgeLabel;html=1;align=center;verticalAlign=middle;resizable=0;points=[];fontSize=16;" parent="68PoX1-DRDIrpmaT4c05-58" vertex="1" connectable="0">
          <mxGeometry x="0.1126" y="4" relative="1" as="geometry">
            <mxPoint y="-11" as="offset" />
          </mxGeometry>
        </mxCell>
        <mxCell id="68PoX1-DRDIrpmaT4c05-61" value="" style="endArrow=classic;html=1;rounded=0;fontSize=12;startSize=8;endSize=8;curved=1;exitX=0;exitY=1;exitDx=0;exitDy=0;entryX=1;entryY=0.5;entryDx=0;entryDy=0;strokeWidth=2;fontStyle=2" parent="1" source="68PoX1-DRDIrpmaT4c05-51" target="68PoX1-DRDIrpmaT4c05-54" edge="1">
          <mxGeometry width="50" height="50" relative="1" as="geometry">
            <mxPoint x="-744.8876404494382" y="375.2160468140442" as="sourcePoint" />
            <mxPoint x="-831.0674157303371" y="350.0248634590377" as="targetPoint" />
            <Array as="points">
              <mxPoint x="-789.9662921348315" y="415.65452535760727" />
            </Array>
          </mxGeometry>
        </mxCell>
        <mxCell id="68PoX1-DRDIrpmaT4c05-62" value="&lt;font style=&quot;font-size: 10px;&quot;&gt;&amp;nbsp;created&lt;/font&gt;" style="edgeLabel;html=1;align=center;verticalAlign=middle;resizable=0;points=[];fontSize=16;" parent="68PoX1-DRDIrpmaT4c05-61" vertex="1" connectable="0">
          <mxGeometry x="0.1345" y="-2" relative="1" as="geometry">
            <mxPoint y="-4" as="offset" />
          </mxGeometry>
        </mxCell>
        <mxCell id="68PoX1-DRDIrpmaT4c05-63" value="" style="endArrow=classic;html=1;rounded=0;fontSize=12;startSize=8;endSize=8;curved=1;exitX=0;exitY=0;exitDx=0;exitDy=0;entryX=1;entryY=0.5;entryDx=0;entryDy=0;strokeWidth=2;fontStyle=2" parent="1" source="68PoX1-DRDIrpmaT4c05-51" target="68PoX1-DRDIrpmaT4c05-55" edge="1">
          <mxGeometry width="50" height="50" relative="1" as="geometry">
            <mxPoint x="-896.0337078651686" y="223.40602080624188" as="sourcePoint" />
            <mxPoint x="-862.8876404494382" y="190.25972691807542" as="targetPoint" />
            <Array as="points">
              <mxPoint x="-783.3370786516854" y="349.3619375812744" />
            </Array>
          </mxGeometry>
        </mxCell>
        <mxCell id="68PoX1-DRDIrpmaT4c05-64" value="&lt;font style=&quot;font-size: 10px;&quot;&gt;&amp;nbsp; type&amp;nbsp;&amp;nbsp;&lt;/font&gt;" style="edgeLabel;html=1;align=center;verticalAlign=middle;resizable=0;points=[];fontSize=16;" parent="68PoX1-DRDIrpmaT4c05-63" vertex="1" connectable="0">
          <mxGeometry x="0.1345" y="-2" relative="1" as="geometry">
            <mxPoint as="offset" />
          </mxGeometry>
        </mxCell>
        <mxCell id="68PoX1-DRDIrpmaT4c05-65" value="" style="endArrow=classic;html=1;rounded=0;fontSize=12;startSize=8;endSize=8;curved=1;exitX=1;exitY=0;exitDx=0;exitDy=0;entryX=0;entryY=0.5;entryDx=0;entryDy=0;strokeWidth=2;fontStyle=2" parent="1" source="68PoX1-DRDIrpmaT4c05-51" target="68PoX1-DRDIrpmaT4c05-56" edge="1">
          <mxGeometry width="50" height="50" relative="1" as="geometry">
            <mxPoint x="-738.2584269662922" y="381.8453055916775" as="sourcePoint" />
            <mxPoint x="-597.7191011235955" y="342.7326788036411" as="targetPoint" />
            <Array as="points">
              <mxPoint x="-650.7528089887641" y="349.3619375812744" />
            </Array>
          </mxGeometry>
        </mxCell>
        <mxCell id="68PoX1-DRDIrpmaT4c05-66" value="&lt;font style=&quot;font-size: 10px;&quot;&gt;nonce&amp;nbsp;&lt;/font&gt;" style="edgeLabel;html=1;align=center;verticalAlign=middle;resizable=0;points=[];fontSize=16;" parent="68PoX1-DRDIrpmaT4c05-65" vertex="1" connectable="0">
          <mxGeometry x="0.1345" y="-2" relative="1" as="geometry">
            <mxPoint as="offset" />
          </mxGeometry>
        </mxCell>
        <mxCell id="68PoX1-DRDIrpmaT4c05-67" value="" style="endArrow=classic;html=1;rounded=0;fontSize=12;startSize=8;endSize=8;curved=1;exitX=1;exitY=1;exitDx=0;exitDy=0;entryX=0;entryY=0.5;entryDx=0;entryDy=0;strokeWidth=2;fontStyle=2" parent="1" source="68PoX1-DRDIrpmaT4c05-51" target="68PoX1-DRDIrpmaT4c05-57" edge="1">
          <mxGeometry width="50" height="50" relative="1" as="geometry">
            <mxPoint x="-731.629213483146" y="388.4745643693108" as="sourcePoint" />
            <mxPoint x="-817.8089887640449" y="363.28338101430427" as="targetPoint" />
            <Array as="points">
              <mxPoint x="-650.7528089887641" y="415.65452535760727" />
            </Array>
          </mxGeometry>
        </mxCell>
        <mxCell id="68PoX1-DRDIrpmaT4c05-68" value="&lt;font style=&quot;font-size: 10px;&quot;&gt;proofValue&amp;nbsp;&lt;/font&gt;" style="edgeLabel;html=1;align=center;verticalAlign=middle;resizable=0;points=[];fontSize=16;" parent="68PoX1-DRDIrpmaT4c05-67" vertex="1" connectable="0">
          <mxGeometry x="0.1345" y="-2" relative="1" as="geometry">
            <mxPoint y="-8" as="offset" />
          </mxGeometry>
        </mxCell>
        <mxCell id="68PoX1-DRDIrpmaT4c05-69" value="&lt;p style=&quot;line-height: 70%;&quot;&gt;&lt;i style=&quot;font-size: 10px;&quot;&gt;&lt;font style=&quot;font-size: 10px;&quot;&gt;&lt;span style=&quot;&quot;&gt;verifiable credential proof graph&lt;/span&gt;&lt;br&gt;&lt;font style=&quot;font-size: 10px;&quot;&gt;(a named graph)&lt;/font&gt;&lt;br&gt;&lt;/font&gt;&lt;/i&gt;&lt;/p&gt;" style="text;html=1;strokeColor=none;fillColor=none;align=center;verticalAlign=middle;whiteSpace=wrap;rounded=0;fontSize=16;" parent="1" vertex="1">
          <mxGeometry x="-637.4943820224719" y="297.0076267880364" width="207.49438202247188" height="19.887776332899872" as="geometry" />
        </mxCell>
        <mxCell id="68PoX1-DRDIrpmaT4c05-70" value="&lt;p style=&quot;line-height: 70%;&quot;&gt;&lt;i style=&quot;border-color: var(--border-color); color: rgb(0, 0, 0); font-family: Helvetica; font-size: 10px; font-variant-ligatures: normal; font-variant-caps: normal; font-weight: 400; letter-spacing: normal; orphans: 2; text-indent: 0px; text-transform: none; widows: 2; word-spacing: 0px; -webkit-text-stroke-width: 0px; background-color: rgb(251, 251, 251); text-decoration-thickness: initial; text-decoration-style: initial; text-decoration-color: initial;&quot;&gt;&lt;font style=&quot;border-color: var(--border-color); font-size: 10px;&quot;&gt;verifiable credential graph&lt;br&gt;(a named graph)&lt;br&gt;&lt;/font&gt;&lt;/i&gt;&lt;/p&gt;" style="text;whiteSpace=wrap;html=1;fontSize=16;align=center;rotation=0;" parent="1" vertex="1">
          <mxGeometry x="-590" y="-10" width="121.88" height="29.89" as="geometry" />
        </mxCell>
        <UserObject label="&lt;i&gt;&lt;font style=&quot;font-size: 10px;&quot; color=&quot;#000000&quot;&gt;Example University&lt;/font&gt;&lt;/i&gt;" id="68PoX1-DRDIrpmaT4c05-71">
          <mxCell style="ellipse;whiteSpace=wrap;html=1;fontSize=16;fillColor=none;strokeWidth=2;strokeColor=#336600;" parent="1" vertex="1">
            <mxGeometry x="-657.3820224719102" y="200.8665409622887" width="106.06741573033707" height="25.999952925877764" as="geometry" />
          </mxCell>
        </UserObject>
        <UserObject label="&lt;i&gt;&lt;font style=&quot;font-size: 10px;&quot; color=&quot;#000000&quot;&gt;2010-01-01T10:37.24Z&lt;/font&gt;&lt;/i&gt;" id="68PoX1-DRDIrpmaT4c05-72">
          <mxCell style="rounded=0;whiteSpace=wrap;html=1;fontSize=16;fillColor=none;strokeWidth=2;" parent="1" vertex="1">
            <mxGeometry x="-993.4831460674158" y="127.9446944083225" width="125.95505617977527" height="26.51703511053316" as="geometry" />
          </mxCell>
        </UserObject>
        <UserObject label="&lt;p style=&quot;line-height: 70%;&quot;&gt;&lt;i&gt;&lt;font style=&quot;font-size: 10px;&quot; color=&quot;#000000&quot;&gt;Example Alumni Credential&lt;/font&gt;&lt;/i&gt;&lt;/p&gt;" id="68PoX1-DRDIrpmaT4c05-73">
          <mxCell style="ellipse;whiteSpace=wrap;html=1;fontSize=16;fillColor=none;strokeWidth=2;strokeColor=#336600;" parent="1" vertex="1">
            <mxGeometry x="-776.3764044943821" y="28.505812743823142" width="119.32584269662921" height="33.14629388816645" as="geometry" />
          </mxCell>
        </UserObject>
        <UserObject label="&lt;i&gt;&lt;font style=&quot;font-size: 10px;&quot; color=&quot;#000000&quot;&gt;Credential123&lt;/font&gt;&lt;/i&gt;" id="68PoX1-DRDIrpmaT4c05-74">
          <mxCell style="ellipse;whiteSpace=wrap;html=1;fontSize=16;fillColor=none;strokeWidth=2;strokeColor=#336600;" parent="1" vertex="1">
            <mxGeometry x="-765.438202247191" y="128.20323550065018" width="97.44943820224718" height="25.999952925877764" as="geometry" />
          </mxCell>
        </UserObject>
        <UserObject label="&lt;i&gt;&lt;font style=&quot;font-size: 10px;&quot; color=&quot;#000000&quot;&gt;Pat&lt;/font&gt;&lt;/i&gt;" id="68PoX1-DRDIrpmaT4c05-75">
          <mxCell style="ellipse;whiteSpace=wrap;html=1;fontSize=16;fillColor=none;strokeWidth=2;strokeColor=#336600;" parent="1" vertex="1">
            <mxGeometry x="-547.3370786516855" y="128.20323550065018" width="97.44943820224718" height="25.999952925877764" as="geometry" />
          </mxCell>
        </UserObject>
        <mxCell id="68PoX1-DRDIrpmaT4c05-76" style="edgeStyle=none;curved=1;rounded=0;orthogonalLoop=1;jettySize=auto;html=1;exitX=0;exitY=0.5;exitDx=0;exitDy=0;fontSize=12;startSize=8;endSize=8;" parent="1" source="68PoX1-DRDIrpmaT4c05-72" target="68PoX1-DRDIrpmaT4c05-72" edge="1">
          <mxGeometry relative="1" as="geometry" />
        </mxCell>
        <mxCell id="68PoX1-DRDIrpmaT4c05-77" style="edgeStyle=none;curved=1;rounded=0;orthogonalLoop=1;jettySize=auto;html=1;exitX=1;exitY=0.5;exitDx=0;exitDy=0;fontSize=12;startSize=8;endSize=8;" parent="1" source="68PoX1-DRDIrpmaT4c05-72" target="68PoX1-DRDIrpmaT4c05-72" edge="1">
          <mxGeometry relative="1" as="geometry" />
        </mxCell>
        <mxCell id="68PoX1-DRDIrpmaT4c05-78" value="" style="endArrow=classic;html=1;rounded=0;fontSize=12;startSize=8;endSize=8;curved=1;exitX=0.5;exitY=0;exitDx=0;exitDy=0;entryX=0.5;entryY=1;entryDx=0;entryDy=0;strokeWidth=2;" parent="1" source="68PoX1-DRDIrpmaT4c05-74" target="68PoX1-DRDIrpmaT4c05-73" edge="1">
          <mxGeometry width="50" height="50" relative="1" as="geometry">
            <mxPoint x="-1429.0224719101125" y="-190.25972691807542" as="sourcePoint" />
            <mxPoint x="-1395.8764044943819" y="-223.40602080624188" as="targetPoint" />
          </mxGeometry>
        </mxCell>
        <mxCell id="68PoX1-DRDIrpmaT4c05-79" value="&lt;font style=&quot;font-size: 10px;&quot;&gt;type&lt;/font&gt;" style="edgeLabel;html=1;align=center;verticalAlign=middle;resizable=0;points=[];fontSize=16;" parent="68PoX1-DRDIrpmaT4c05-78" vertex="1" connectable="0">
          <mxGeometry x="-0.016" relative="1" as="geometry">
            <mxPoint as="offset" />
          </mxGeometry>
        </mxCell>
        <mxCell id="68PoX1-DRDIrpmaT4c05-80" value="" style="endArrow=classic;html=1;rounded=0;fontSize=12;startSize=8;endSize=8;curved=1;exitX=0;exitY=0.5;exitDx=0;exitDy=0;entryX=1;entryY=0.5;entryDx=0;entryDy=0;strokeWidth=2;" parent="1" source="68PoX1-DRDIrpmaT4c05-74" target="68PoX1-DRDIrpmaT4c05-72" edge="1">
          <mxGeometry width="50" height="50" relative="1" as="geometry">
            <mxPoint x="-1515.2022471910113" y="-362.36191404421334" as="sourcePoint" />
            <mxPoint x="-1515.2022471910113" y="-428.6545018205463" as="targetPoint" />
          </mxGeometry>
        </mxCell>
        <mxCell id="68PoX1-DRDIrpmaT4c05-82" value="&lt;font style=&quot;font-size: 10px;&quot;&gt;&amp;nbsp;validFrom&amp;nbsp;&lt;/font&gt;" style="edgeLabel;html=1;align=center;verticalAlign=middle;resizable=0;points=[];fontSize=16;" parent="68PoX1-DRDIrpmaT4c05-80" vertex="1" connectable="0">
          <mxGeometry x="-0.0409" y="-1" relative="1" as="geometry">
            <mxPoint y="-3" as="offset" />
          </mxGeometry>
        </mxCell>
        <mxCell id="68PoX1-DRDIrpmaT4c05-83" value="" style="endArrow=classic;html=1;rounded=0;fontSize=12;startSize=8;endSize=8;curved=1;entryX=0.5;entryY=0;entryDx=0;entryDy=0;strokeWidth=2;exitX=1;exitY=1;exitDx=0;exitDy=0;" parent="1" source="68PoX1-DRDIrpmaT4c05-74" target="68PoX1-DRDIrpmaT4c05-71" edge="1">
          <mxGeometry width="50" height="50" relative="1" as="geometry">
            <mxPoint x="-1420.4044943820224" y="-301.8898154746424" as="sourcePoint" />
            <mxPoint x="-1495.314606741573" y="-251.50744876462937" as="targetPoint" />
          </mxGeometry>
        </mxCell>
        <mxCell id="68PoX1-DRDIrpmaT4c05-84" value="&lt;font style=&quot;font-size: 10px;&quot;&gt;issuer&lt;/font&gt;" style="edgeLabel;html=1;align=center;verticalAlign=middle;resizable=0;points=[];fontSize=16;" parent="68PoX1-DRDIrpmaT4c05-83" vertex="1" connectable="0">
          <mxGeometry x="-0.016" relative="1" as="geometry">
            <mxPoint as="offset" />
          </mxGeometry>
        </mxCell>
        <mxCell id="68PoX1-DRDIrpmaT4c05-85" value="" style="endArrow=classic;html=1;rounded=0;fontSize=12;startSize=8;endSize=8;curved=1;entryX=0;entryY=0.5;entryDx=0;entryDy=0;strokeWidth=2;exitX=1;exitY=0.5;exitDx=0;exitDy=0;" parent="1" source="68PoX1-DRDIrpmaT4c05-74" target="68PoX1-DRDIrpmaT4c05-75" edge="1">
          <mxGeometry width="50" height="50" relative="1" as="geometry">
            <mxPoint x="-1382.6179775280898" y="-309.58638491547464" as="sourcePoint" />
            <mxPoint x="-1581.4943820224719" y="-342.7326788036411" as="targetPoint" />
          </mxGeometry>
        </mxCell>
        <mxCell id="68PoX1-DRDIrpmaT4c05-86" value="&lt;font style=&quot;font-size: 10px;&quot;&gt;&amp;nbsp; credentialSubject&amp;nbsp;&amp;nbsp;&lt;/font&gt;" style="edgeLabel;html=1;align=center;verticalAlign=middle;resizable=0;points=[];fontSize=16;" parent="68PoX1-DRDIrpmaT4c05-85" vertex="1" connectable="0">
          <mxGeometry x="-0.016" relative="1" as="geometry">
            <mxPoint y="-4" as="offset" />
          </mxGeometry>
        </mxCell>
        <mxCell id="68PoX1-DRDIrpmaT4c05-87" value="" style="endArrow=classic;html=1;rounded=0;fontSize=12;startSize=8;endSize=8;curved=1;entryX=0.5;entryY=0;entryDx=0;entryDy=0;strokeWidth=2;exitX=0;exitY=1;exitDx=0;exitDy=0;" parent="1" source="68PoX1-DRDIrpmaT4c05-75" target="68PoX1-DRDIrpmaT4c05-71" edge="1">
          <mxGeometry width="50" height="50" relative="1" as="geometry">
            <mxPoint x="-1223.5168539325844" y="-236.66453836150845" as="sourcePoint" />
            <mxPoint x="-1096.2359550561798" y="-236.66453836150845" as="targetPoint" />
          </mxGeometry>
        </mxCell>
        <mxCell id="68PoX1-DRDIrpmaT4c05-88" value="&lt;font style=&quot;font-size: 10px;&quot;&gt;alumniOf&lt;/font&gt;" style="edgeLabel;html=1;align=center;verticalAlign=middle;resizable=0;points=[];fontSize=16;" parent="68PoX1-DRDIrpmaT4c05-87" vertex="1" connectable="0">
          <mxGeometry x="-0.016" relative="1" as="geometry">
            <mxPoint as="offset" />
          </mxGeometry>
        </mxCell>
        <mxCell id="68PoX1-DRDIrpmaT4c05-91" value="" style="endArrow=classic;html=1;rounded=0;fontSize=12;startSize=8;endSize=8;curved=1;strokeWidth=2;exitX=0.5;exitY=1;exitDx=0;exitDy=0;entryX=0.525;entryY=-0.003;entryDx=0;entryDy=0;entryPerimeter=0;" parent="1" source="68PoX1-DRDIrpmaT4c05-74" target="68PoX1-DRDIrpmaT4c05-90" edge="1">
          <mxGeometry width="50" height="50" relative="1" as="geometry">
            <mxPoint x="-723.6741573033707" y="300.305422626788" as="sourcePoint" />
            <mxPoint x="-690.5280898876405" y="267.1591287386216" as="targetPoint" />
          </mxGeometry>
        </mxCell>
        <mxCell id="68PoX1-DRDIrpmaT4c05-92" value="&lt;font style=&quot;font-size: 10px;&quot;&gt;proof&lt;/font&gt;" style="edgeLabel;html=1;align=center;verticalAlign=middle;resizable=0;points=[];fontSize=16;" parent="68PoX1-DRDIrpmaT4c05-91" vertex="1" connectable="0">
          <mxGeometry x="-0.1786" y="-1" relative="1" as="geometry">
            <mxPoint as="offset" />
          </mxGeometry>
        </mxCell>
        <mxCell id="68PoX1-DRDIrpmaT4c05-47" value="" style="rounded=1;whiteSpace=wrap;html=1;fontSize=16;fillColor=none;dashed=1;dashPattern=12 12;" parent="1" vertex="1">
          <mxGeometry x="-1465" y="-228.97553966189855" width="576.7415730337078" height="218.76553966189857" as="geometry" />
        </mxCell>
        <mxCell id="68PoX1-DRDIrpmaT4c05-46" value="" style="rounded=1;whiteSpace=wrap;html=1;fontSize=16;fillColor=none;dashed=1;dashPattern=12 12;" parent="1" vertex="1">
          <mxGeometry x="-1465" y="-516.6853706111833" width="583.3707865168539" height="256.5523146944083" as="geometry" />
        </mxCell>
        <UserObject label="&lt;i&gt;&lt;font style=&quot;font-size: 10px;&quot; color=&quot;#000000&quot;&gt;Signature 789&lt;/font&gt;&lt;/i&gt;" id="68PoX1-DRDIrpmaT4c05-8">
          <mxCell style="ellipse;whiteSpace=wrap;html=1;fontSize=16;fillColor=none;strokeWidth=2;strokeColor=#336600;" parent="1" vertex="1">
            <mxGeometry x="-1215.741573033708" y="-153.14344850455137" width="97.44943820224718" height="25.999952925877764" as="geometry" />
          </mxCell>
        </UserObject>
        <mxCell id="68PoX1-DRDIrpmaT4c05-9" value="" style="group" parent="1" vertex="1" connectable="0">
          <mxGeometry x="-1420.5842696629213" y="-193.1775422626788" width="498.51685393258424" height="161.09098829648894" as="geometry" />
        </mxCell>
        <UserObject label="&lt;p style=&quot;line-height: 70%;&quot;&gt;&lt;i&gt;&lt;font style=&quot;font-size: 10px;&quot; color=&quot;#000000&quot;&gt;Example University Public Key 7&amp;nbsp;&lt;/font&gt;&lt;/i&gt;&lt;/p&gt;" id="68PoX1-DRDIrpmaT4c05-10">
          <mxCell style="ellipse;whiteSpace=wrap;html=1;fontSize=16;fillColor=none;strokeWidth=2;strokeColor=#336600;" parent="68PoX1-DRDIrpmaT4c05-9" vertex="1">
            <mxGeometry x="200.53370786516854" y="121.31543563068921" width="106.06741573033707" height="39.775552665799744" as="geometry" />
          </mxCell>
        </UserObject>
        <UserObject label="&lt;i&gt;&lt;font style=&quot;font-size: 10px;&quot; color=&quot;#000000&quot;&gt;2024-01-01T10:50.10Z&lt;/font&gt;&lt;/i&gt;" id="68PoX1-DRDIrpmaT4c05-11">
          <mxCell style="rounded=0;whiteSpace=wrap;html=1;fontSize=16;fillColor=none;strokeWidth=2;" parent="68PoX1-DRDIrpmaT4c05-9" vertex="1">
            <mxGeometry y="79.55110533159949" width="125.95505617977527" height="26.51703511053316" as="geometry" />
          </mxCell>
        </UserObject>
        <UserObject label="&lt;i&gt;&lt;font style=&quot;font-size: 10px;&quot; color=&quot;#000000&quot;&gt;Data Integrity Proof&lt;/font&gt;&lt;/i&gt;" id="68PoX1-DRDIrpmaT4c05-12">
          <mxCell style="ellipse;whiteSpace=wrap;html=1;fontSize=16;fillColor=none;strokeWidth=2;strokeColor=#336600;shadow=0;perimeterSpacing=3;" parent="68PoX1-DRDIrpmaT4c05-9" vertex="1">
            <mxGeometry x="3.3146067415730336" width="119.32584269662921" height="33.14629388816645" as="geometry" />
          </mxCell>
        </UserObject>
        <UserObject label="&lt;i&gt;&lt;font style=&quot;font-size: 10px;&quot; color=&quot;#000000&quot;&gt;45jhei78j0ei&lt;/font&gt;&lt;/i&gt;" id="68PoX1-DRDIrpmaT4c05-13">
          <mxCell style="rounded=0;whiteSpace=wrap;html=1;fontSize=16;fillColor=none;strokeWidth=2;" parent="68PoX1-DRDIrpmaT4c05-9" vertex="1">
            <mxGeometry x="399.07865168539325" y="2.651703511053316" width="92.80898876404494" height="26.51703511053316" as="geometry" />
          </mxCell>
        </UserObject>
        <UserObject label="&lt;i&gt;&lt;font style=&quot;font-size: 10px;&quot; color=&quot;#000000&quot;&gt;zHbNml98dnao&lt;/font&gt;&lt;/i&gt;" id="68PoX1-DRDIrpmaT4c05-14">
          <mxCell style="rounded=0;whiteSpace=wrap;html=1;fontSize=16;fillColor=none;strokeWidth=2;" parent="68PoX1-DRDIrpmaT4c05-9" vertex="1">
            <mxGeometry x="392.44943820224717" y="76.89940182054616" width="106.06741573033707" height="26.51703511053316" as="geometry" />
          </mxCell>
        </UserObject>
        <mxCell id="68PoX1-DRDIrpmaT4c05-15" value="" style="endArrow=classic;html=1;rounded=0;fontSize=12;startSize=8;endSize=8;curved=1;entryX=0.5;entryY=0;entryDx=0;entryDy=0;exitX=0.5;exitY=1;exitDx=0;exitDy=0;strokeWidth=2;fontStyle=2" parent="1" source="68PoX1-DRDIrpmaT4c05-8" target="68PoX1-DRDIrpmaT4c05-10" edge="1">
          <mxGeometry width="50" height="50" relative="1" as="geometry">
            <mxPoint x="-1175.303370786517" y="-104.34547464239273" as="sourcePoint" />
            <mxPoint x="-1256.1797752808989" y="-150.08736020806242" as="targetPoint" />
          </mxGeometry>
        </mxCell>
        <mxCell id="68PoX1-DRDIrpmaT4c05-17" value="&lt;font style=&quot;font-size: 10px;&quot;&gt;verificationMethod&lt;/font&gt;" style="edgeLabel;html=1;align=center;verticalAlign=middle;resizable=0;points=[];fontSize=16;" parent="68PoX1-DRDIrpmaT4c05-15" vertex="1" connectable="0">
          <mxGeometry x="0.1126" y="4" relative="1" as="geometry">
            <mxPoint y="-15" as="offset" />
          </mxGeometry>
        </mxCell>
        <mxCell id="68PoX1-DRDIrpmaT4c05-18" value="" style="endArrow=classic;html=1;rounded=0;fontSize=12;startSize=8;endSize=8;curved=1;exitX=0;exitY=1;exitDx=0;exitDy=0;entryX=1;entryY=0.5;entryDx=0;entryDy=0;strokeWidth=2;fontStyle=2" parent="1" source="68PoX1-DRDIrpmaT4c05-8" target="68PoX1-DRDIrpmaT4c05-11" edge="1">
          <mxGeometry width="50" height="50" relative="1" as="geometry">
            <mxPoint x="-1189.887640449438" y="-144.7839531859558" as="sourcePoint" />
            <mxPoint x="-1276.0674157303372" y="-169.9751365409623" as="targetPoint" />
            <Array as="points">
              <mxPoint x="-1234.9662921348315" y="-104.34547464239273" />
            </Array>
          </mxGeometry>
        </mxCell>
        <mxCell id="68PoX1-DRDIrpmaT4c05-19" value="&lt;font style=&quot;font-size: 10px;&quot;&gt;&amp;nbsp;created&lt;/font&gt;" style="edgeLabel;html=1;align=center;verticalAlign=middle;resizable=0;points=[];fontSize=16;" parent="68PoX1-DRDIrpmaT4c05-18" vertex="1" connectable="0">
          <mxGeometry x="0.1345" y="-2" relative="1" as="geometry">
            <mxPoint y="-4" as="offset" />
          </mxGeometry>
        </mxCell>
        <mxCell id="68PoX1-DRDIrpmaT4c05-20" value="" style="endArrow=classic;html=1;rounded=0;fontSize=12;startSize=8;endSize=8;curved=1;exitX=0;exitY=0;exitDx=0;exitDy=0;entryX=1;entryY=0.5;entryDx=0;entryDy=0;strokeWidth=2;fontStyle=2" parent="1" source="68PoX1-DRDIrpmaT4c05-8" target="68PoX1-DRDIrpmaT4c05-12" edge="1">
          <mxGeometry width="50" height="50" relative="1" as="geometry">
            <mxPoint x="-1341.0337078651685" y="-296.5939791937581" as="sourcePoint" />
            <mxPoint x="-1307.887640449438" y="-329.74027308192456" as="targetPoint" />
            <Array as="points">
              <mxPoint x="-1228.3370786516855" y="-170.6380624187256" />
            </Array>
          </mxGeometry>
        </mxCell>
        <mxCell id="68PoX1-DRDIrpmaT4c05-21" value="&lt;font style=&quot;font-size: 10px;&quot;&gt;&amp;nbsp; type&amp;nbsp;&amp;nbsp;&lt;/font&gt;" style="edgeLabel;html=1;align=center;verticalAlign=middle;resizable=0;points=[];fontSize=16;" parent="68PoX1-DRDIrpmaT4c05-20" vertex="1" connectable="0">
          <mxGeometry x="0.1345" y="-2" relative="1" as="geometry">
            <mxPoint as="offset" />
          </mxGeometry>
        </mxCell>
        <mxCell id="68PoX1-DRDIrpmaT4c05-22" value="" style="endArrow=classic;html=1;rounded=0;fontSize=12;startSize=8;endSize=8;curved=1;exitX=1;exitY=0;exitDx=0;exitDy=0;entryX=0;entryY=0.5;entryDx=0;entryDy=0;strokeWidth=2;fontStyle=2" parent="1" source="68PoX1-DRDIrpmaT4c05-8" target="68PoX1-DRDIrpmaT4c05-13" edge="1">
          <mxGeometry width="50" height="50" relative="1" as="geometry">
            <mxPoint x="-1183.258426966292" y="-138.15469440832248" as="sourcePoint" />
            <mxPoint x="-1042.7191011235955" y="-177.26732119635892" as="targetPoint" />
            <Array as="points">
              <mxPoint x="-1095.7528089887642" y="-170.6380624187256" />
            </Array>
          </mxGeometry>
        </mxCell>
        <mxCell id="68PoX1-DRDIrpmaT4c05-23" value="&lt;font style=&quot;font-size: 10px;&quot;&gt;nonce&lt;/font&gt;&amp;nbsp;" style="edgeLabel;html=1;align=center;verticalAlign=middle;resizable=0;points=[];fontSize=16;" parent="68PoX1-DRDIrpmaT4c05-22" vertex="1" connectable="0">
          <mxGeometry x="0.1345" y="-2" relative="1" as="geometry">
            <mxPoint as="offset" />
          </mxGeometry>
        </mxCell>
        <mxCell id="68PoX1-DRDIrpmaT4c05-24" value="" style="endArrow=classic;html=1;rounded=0;fontSize=12;startSize=8;endSize=8;curved=1;exitX=1;exitY=1;exitDx=0;exitDy=0;entryX=0;entryY=0.5;entryDx=0;entryDy=0;strokeWidth=2;fontStyle=2" parent="1" source="68PoX1-DRDIrpmaT4c05-8" target="68PoX1-DRDIrpmaT4c05-14" edge="1">
          <mxGeometry width="50" height="50" relative="1" as="geometry">
            <mxPoint x="-1176.629213483146" y="-131.52543563068917" as="sourcePoint" />
            <mxPoint x="-1262.808988764045" y="-156.71661898569573" as="targetPoint" />
            <Array as="points">
              <mxPoint x="-1095.7528089887642" y="-104.34547464239273" />
            </Array>
          </mxGeometry>
        </mxCell>
        <mxCell id="68PoX1-DRDIrpmaT4c05-25" value="&lt;font style=&quot;font-size: 10px;&quot;&gt;proofValue&amp;nbsp;&lt;/font&gt;" style="edgeLabel;html=1;align=center;verticalAlign=middle;resizable=0;points=[];fontSize=16;" parent="68PoX1-DRDIrpmaT4c05-24" vertex="1" connectable="0">
          <mxGeometry x="0.1345" y="-2" relative="1" as="geometry">
            <mxPoint y="-9" as="offset" />
          </mxGeometry>
        </mxCell>
        <mxCell id="68PoX1-DRDIrpmaT4c05-26" value="&lt;p style=&quot;line-height: 70%;&quot;&gt;&lt;i style=&quot;font-size: 11px;&quot;&gt;&lt;font style=&quot;font-size: 11px;&quot;&gt;&lt;span style=&quot;&quot;&gt;verifiable credential proof graph&lt;/span&gt;&lt;br&gt;&lt;font style=&quot;font-size: 11px;&quot;&gt;(a named graph)&lt;/font&gt;&lt;br&gt;&lt;/font&gt;&lt;/i&gt;&lt;/p&gt;" style="text;html=1;strokeColor=none;fillColor=none;align=center;verticalAlign=middle;whiteSpace=wrap;rounded=0;fontSize=16;" parent="1" vertex="1">
          <mxGeometry x="-1089.124382022472" y="-220.99237321196358" width="207.49438202247188" height="19.887776332899872" as="geometry" />
        </mxCell>
        <mxCell id="68PoX1-DRDIrpmaT4c05-27" value="&lt;p style=&quot;line-height: 70%;&quot;&gt;&lt;i style=&quot;border-color: var(--border-color); color: rgb(0, 0, 0); font-family: Helvetica; font-size: 10px; font-variant-ligatures: normal; font-variant-caps: normal; font-weight: 400; letter-spacing: normal; orphans: 2; text-indent: 0px; text-transform: none; widows: 2; word-spacing: 0px; -webkit-text-stroke-width: 0px; background-color: rgb(251, 251, 251); text-decoration-thickness: initial; text-decoration-style: initial; text-decoration-color: initial;&quot;&gt;&lt;font style=&quot;border-color: var(--border-color); font-size: 10px;&quot;&gt;verifiable credential graph&lt;br&gt;(a named graph)&lt;br&gt;&lt;/font&gt;&lt;/i&gt;&lt;/p&gt;" style="text;whiteSpace=wrap;html=1;fontSize=16;align=center;rotation=0;" parent="1" vertex="1">
          <mxGeometry x="-1035" y="-530" width="121.88" height="29.89" as="geometry" />
        </mxCell>
        <UserObject label="&lt;i&gt;&lt;font style=&quot;font-size: 10px;&quot; color=&quot;#000000&quot;&gt;Example University&lt;/font&gt;&lt;/i&gt;" id="68PoX1-DRDIrpmaT4c05-28">
          <mxCell style="ellipse;whiteSpace=wrap;html=1;fontSize=16;fillColor=none;strokeWidth=2;strokeColor=#336600;" parent="1" vertex="1">
            <mxGeometry x="-1102.3820224719102" y="-319.1334590377113" width="106.06741573033707" height="25.999952925877764" as="geometry" />
          </mxCell>
        </UserObject>
        <UserObject label="&lt;i&gt;&lt;font style=&quot;font-size: 10px;&quot; color=&quot;#000000&quot;&gt;2024-01-01T10:37.24Z&lt;/font&gt;&lt;/i&gt;" id="68PoX1-DRDIrpmaT4c05-29">
          <mxCell style="rounded=0;whiteSpace=wrap;html=1;fontSize=16;fillColor=none;strokeWidth=2;" parent="1" vertex="1">
            <mxGeometry x="-1438.4831460674156" y="-392.0553055916775" width="125.95505617977527" height="26.51703511053316" as="geometry" />
          </mxCell>
        </UserObject>
        <UserObject label="&lt;p style=&quot;line-height: 70%;&quot;&gt;&lt;i&gt;&lt;font size=&quot;1&quot; style=&quot;&quot; color=&quot;#000000&quot;&gt;Example Alumni Credent&lt;/font&gt;&lt;font style=&quot;font-size: 11px;&quot; color=&quot;#000000&quot;&gt;ial&lt;/font&gt;&lt;/i&gt;&lt;/p&gt;" id="68PoX1-DRDIrpmaT4c05-30">
          <mxCell style="ellipse;whiteSpace=wrap;html=1;fontSize=16;fillColor=none;strokeWidth=2;strokeColor=#336600;" parent="1" vertex="1">
            <mxGeometry x="-1221.376404494382" y="-491.4941872561769" width="119.32584269662921" height="33.14629388816645" as="geometry" />
          </mxCell>
        </UserObject>
        <UserObject label="&lt;i&gt;&lt;font style=&quot;font-size: 10px;&quot; color=&quot;#000000&quot;&gt;Credential456&lt;/font&gt;&lt;/i&gt;" id="68PoX1-DRDIrpmaT4c05-31">
          <mxCell style="ellipse;whiteSpace=wrap;html=1;fontSize=16;fillColor=none;strokeWidth=2;strokeColor=#336600;" parent="1" vertex="1">
            <mxGeometry x="-1210.438202247191" y="-391.7967644993498" width="97.44943820224718" height="25.999952925877764" as="geometry" />
          </mxCell>
        </UserObject>
        <UserObject label="&lt;i&gt;&lt;font style=&quot;font-size: 10px;&quot; color=&quot;#000000&quot;&gt;Ted&lt;/font&gt;&lt;/i&gt;" id="68PoX1-DRDIrpmaT4c05-32">
          <mxCell style="ellipse;whiteSpace=wrap;html=1;fontSize=16;fillColor=none;strokeWidth=2;strokeColor=#336600;" parent="1" vertex="1">
            <mxGeometry x="-992.3370786516855" y="-391.7967644993498" width="97.44943820224718" height="25.999952925877764" as="geometry" />
          </mxCell>
        </UserObject>
        <mxCell id="68PoX1-DRDIrpmaT4c05-33" style="edgeStyle=none;curved=1;rounded=0;orthogonalLoop=1;jettySize=auto;html=1;exitX=0;exitY=0.5;exitDx=0;exitDy=0;fontSize=12;startSize=8;endSize=8;" parent="1" source="68PoX1-DRDIrpmaT4c05-29" target="68PoX1-DRDIrpmaT4c05-29" edge="1">
          <mxGeometry relative="1" as="geometry" />
        </mxCell>
        <mxCell id="68PoX1-DRDIrpmaT4c05-34" style="edgeStyle=none;curved=1;rounded=0;orthogonalLoop=1;jettySize=auto;html=1;exitX=1;exitY=0.5;exitDx=0;exitDy=0;fontSize=12;startSize=8;endSize=8;" parent="1" source="68PoX1-DRDIrpmaT4c05-29" target="68PoX1-DRDIrpmaT4c05-29" edge="1">
          <mxGeometry relative="1" as="geometry" />
        </mxCell>
        <mxCell id="68PoX1-DRDIrpmaT4c05-35" value="" style="endArrow=classic;html=1;rounded=0;fontSize=12;startSize=8;endSize=8;curved=1;exitX=0.5;exitY=0;exitDx=0;exitDy=0;entryX=0.5;entryY=1;entryDx=0;entryDy=0;strokeWidth=2;" parent="1" source="68PoX1-DRDIrpmaT4c05-31" target="68PoX1-DRDIrpmaT4c05-30" edge="1">
          <mxGeometry width="50" height="50" relative="1" as="geometry">
            <mxPoint x="-1874.0224719101125" y="-710.2597269180754" as="sourcePoint" />
            <mxPoint x="-1840.8764044943819" y="-743.4060208062419" as="targetPoint" />
          </mxGeometry>
        </mxCell>
        <mxCell id="68PoX1-DRDIrpmaT4c05-36" value="&lt;font style=&quot;font-size: 10px;&quot;&gt;type&lt;/font&gt;" style="edgeLabel;html=1;align=center;verticalAlign=middle;resizable=0;points=[];fontSize=16;" parent="68PoX1-DRDIrpmaT4c05-35" vertex="1" connectable="0">
          <mxGeometry x="-0.016" relative="1" as="geometry">
            <mxPoint as="offset" />
          </mxGeometry>
        </mxCell>
        <mxCell id="68PoX1-DRDIrpmaT4c05-37" value="" style="endArrow=classic;html=1;rounded=0;fontSize=12;startSize=8;endSize=8;curved=1;exitX=0;exitY=0.5;exitDx=0;exitDy=0;entryX=1;entryY=0.5;entryDx=0;entryDy=0;strokeWidth=2;" parent="1" source="68PoX1-DRDIrpmaT4c05-31" target="68PoX1-DRDIrpmaT4c05-29" edge="1">
          <mxGeometry width="50" height="50" relative="1" as="geometry">
            <mxPoint x="-1960.2022471910113" y="-882.3619140442133" as="sourcePoint" />
            <mxPoint x="-1960.2022471910113" y="-948.6545018205463" as="targetPoint" />
          </mxGeometry>
        </mxCell>
        <mxCell id="68PoX1-DRDIrpmaT4c05-38" value="&lt;br&gt;" style="edgeLabel;html=1;align=center;verticalAlign=middle;resizable=0;points=[];fontSize=16;" parent="68PoX1-DRDIrpmaT4c05-37" vertex="1" connectable="0">
          <mxGeometry x="-0.016" relative="1" as="geometry">
            <mxPoint as="offset" />
          </mxGeometry>
        </mxCell>
        <mxCell id="68PoX1-DRDIrpmaT4c05-39" value="&lt;font style=&quot;font-size: 10px;&quot;&gt;&amp;nbsp;validFrom&amp;nbsp;&amp;nbsp;&lt;/font&gt;" style="edgeLabel;html=1;align=center;verticalAlign=middle;resizable=0;points=[];fontSize=16;" parent="68PoX1-DRDIrpmaT4c05-37" vertex="1" connectable="0">
          <mxGeometry x="-0.0409" y="-1" relative="1" as="geometry">
            <mxPoint y="-3" as="offset" />
          </mxGeometry>
        </mxCell>
        <mxCell id="68PoX1-DRDIrpmaT4c05-40" value="" style="endArrow=classic;html=1;rounded=0;fontSize=12;startSize=8;endSize=8;curved=1;entryX=0.5;entryY=0;entryDx=0;entryDy=0;strokeWidth=2;exitX=1;exitY=1;exitDx=0;exitDy=0;" parent="1" source="68PoX1-DRDIrpmaT4c05-31" target="68PoX1-DRDIrpmaT4c05-28" edge="1">
          <mxGeometry width="50" height="50" relative="1" as="geometry">
            <mxPoint x="-1865.4044943820224" y="-821.8898154746423" as="sourcePoint" />
            <mxPoint x="-1940.314606741573" y="-771.5074487646293" as="targetPoint" />
          </mxGeometry>
        </mxCell>
        <mxCell id="68PoX1-DRDIrpmaT4c05-41" value="&lt;font style=&quot;font-size: 10px;&quot;&gt;issuer&lt;/font&gt;" style="edgeLabel;html=1;align=center;verticalAlign=middle;resizable=0;points=[];fontSize=16;" parent="68PoX1-DRDIrpmaT4c05-40" vertex="1" connectable="0">
          <mxGeometry x="-0.016" relative="1" as="geometry">
            <mxPoint as="offset" />
          </mxGeometry>
        </mxCell>
        <mxCell id="68PoX1-DRDIrpmaT4c05-42" value="" style="endArrow=classic;html=1;rounded=0;fontSize=12;startSize=8;endSize=8;curved=1;entryX=0;entryY=0.5;entryDx=0;entryDy=0;strokeWidth=2;exitX=1;exitY=0.5;exitDx=0;exitDy=0;" parent="1" source="68PoX1-DRDIrpmaT4c05-31" target="68PoX1-DRDIrpmaT4c05-32" edge="1">
          <mxGeometry width="50" height="50" relative="1" as="geometry">
            <mxPoint x="-1827.6179775280898" y="-829.5863849154746" as="sourcePoint" />
            <mxPoint x="-2026.4943820224719" y="-862.7326788036411" as="targetPoint" />
          </mxGeometry>
        </mxCell>
        <mxCell id="68PoX1-DRDIrpmaT4c05-43" value="&lt;font style=&quot;font-size: 10px;&quot;&gt;&amp;nbsp; credentialSubject&amp;nbsp;&amp;nbsp;&lt;/font&gt;" style="edgeLabel;html=1;align=center;verticalAlign=middle;resizable=0;points=[];fontSize=16;" parent="68PoX1-DRDIrpmaT4c05-42" vertex="1" connectable="0">
          <mxGeometry x="-0.016" relative="1" as="geometry">
            <mxPoint y="-4" as="offset" />
          </mxGeometry>
        </mxCell>
        <mxCell id="68PoX1-DRDIrpmaT4c05-44" value="" style="endArrow=classic;html=1;rounded=0;fontSize=12;startSize=8;endSize=8;curved=1;entryX=0.5;entryY=0;entryDx=0;entryDy=0;strokeWidth=2;exitX=0;exitY=1;exitDx=0;exitDy=0;" parent="1" source="68PoX1-DRDIrpmaT4c05-32" target="68PoX1-DRDIrpmaT4c05-28" edge="1">
          <mxGeometry width="50" height="50" relative="1" as="geometry">
            <mxPoint x="-1668.5168539325844" y="-756.6645383615084" as="sourcePoint" />
            <mxPoint x="-1541.2359550561798" y="-756.6645383615084" as="targetPoint" />
          </mxGeometry>
        </mxCell>
        <mxCell id="68PoX1-DRDIrpmaT4c05-45" value="&lt;font style=&quot;font-size: 10px;&quot;&gt;alumniOf&lt;/font&gt;" style="edgeLabel;html=1;align=center;verticalAlign=middle;resizable=0;points=[];fontSize=16;" parent="68PoX1-DRDIrpmaT4c05-44" vertex="1" connectable="0">
          <mxGeometry x="-0.016" relative="1" as="geometry">
            <mxPoint as="offset" />
          </mxGeometry>
        </mxCell>
        <mxCell id="68PoX1-DRDIrpmaT4c05-48" value="" style="endArrow=classic;html=1;rounded=0;fontSize=12;startSize=8;endSize=8;curved=1;strokeWidth=2;exitX=0.5;exitY=1;exitDx=0;exitDy=0;entryX=0.525;entryY=-0.003;entryDx=0;entryDy=0;entryPerimeter=0;" parent="1" source="68PoX1-DRDIrpmaT4c05-31" target="68PoX1-DRDIrpmaT4c05-47" edge="1">
          <mxGeometry width="50" height="50" relative="1" as="geometry">
            <mxPoint x="-1168.6741573033707" y="-219.69457737321198" as="sourcePoint" />
            <mxPoint x="-1135.5280898876404" y="-252.84087126137842" as="targetPoint" />
          </mxGeometry>
        </mxCell>
        <mxCell id="68PoX1-DRDIrpmaT4c05-49" value="&lt;font style=&quot;font-size: 10px;&quot;&gt;proof&lt;/font&gt;" style="edgeLabel;html=1;align=center;verticalAlign=middle;resizable=0;points=[];fontSize=16;" parent="68PoX1-DRDIrpmaT4c05-48" vertex="1" connectable="0">
          <mxGeometry x="-0.1786" y="-1" relative="1" as="geometry">
            <mxPoint as="offset" />
          </mxGeometry>
        </mxCell>
      </root>
    </mxGraphModel>
  </diagram>
</mxfile>
